<?xml version="1.0" encoding="utf-8"?>
<!-- Generator: Adobe Illustrator 22.1.0, SVG Export Plug-In . SVG Version: 6.00 Build 0)  -->
<svg version="1.1" id="Camada_1" xmlns="http://www.w3.org/2000/svg" xmlns:xlink="http://www.w3.org/1999/xlink" x="0px" y="0px"
	 viewBox="0 0 264 264" style="enable-background:new 0 0 264 264;" xml:space="preserve">
<style type="text/css">
	.st0{fill:none;stroke:#000000;stroke-width:3;stroke-linecap:round;stroke-miterlimit:10;}
	.st1{fill:#636363;stroke:#000000;stroke-width:0.6;stroke-linecap:round;stroke-linejoin:round;stroke-miterlimit:10;}
	.st2{fill:none;stroke:#000000;stroke-width:1.5;stroke-linecap:round;stroke-linejoin:round;stroke-miterlimit:10;}
</style>
<g>
	<g>
		<line class="st0" x1="132" y1="7.4" x2="132" y2="26"/>
	</g>
	<g>
		<line class="st0" x1="256.6" y1="132" x2="238" y2="132"/>
	</g>
	<g>
		<line class="st0" x1="132" y1="256.6" x2="132" y2="238"/>
	</g>
	<g>
		<line class="st0" x1="7.4" y1="132" x2="26" y2="132"/>
	</g>
</g>
<g>
	<line class="st1" x1="145" y1="8" x2="143.9" y2="18.6"/>
	<g>
		<line class="st1" x1="8" y1="119" x2="18.6" y2="120.1"/>
		<line class="st1" x1="256" y1="145" x2="245.4" y2="143.9"/>
		<line class="st1" x1="119" y1="256" x2="120.1" y2="245.4"/>
	</g>
</g>
<g>
	<line class="st1" x1="157.9" y1="10.1" x2="155.7" y2="20.5"/>
	<g>
		<line class="st1" x1="10.1" y1="106.1" x2="20.5" y2="108.3"/>
		<line class="st1" x1="253.9" y1="157.9" x2="243.5" y2="155.7"/>
		<line class="st1" x1="106.1" y1="253.9" x2="108.3" y2="243.5"/>
	</g>
</g>
<g>
	<line class="st1" x1="170.5" y1="13.5" x2="167.2" y2="23.6"/>
	<g>
		<line class="st1" x1="13.5" y1="93.5" x2="23.6" y2="96.8"/>
		<line class="st1" x1="250.5" y1="170.5" x2="240.4" y2="167.2"/>
		<line class="st1" x1="93.5" y1="250.5" x2="96.8" y2="240.4"/>
	</g>
</g>
<g>
	<line class="st1" x1="182.7" y1="18.1" x2="178.3" y2="27.8"/>
	<g>
		<line class="st1" x1="18.1" y1="81.3" x2="27.8" y2="85.7"/>
		<line class="st1" x1="245.9" y1="182.7" x2="236.2" y2="178.3"/>
		<line class="st1" x1="81.3" y1="245.9" x2="85.7" y2="236.2"/>
	</g>
</g>
<g>
	<line class="st2" x1="194.3" y1="24.1" x2="187" y2="36.7"/>
	<g>
		<line class="st2" x1="24.1" y1="69.7" x2="36.7" y2="77"/>
		<line class="st2" x1="239.9" y1="194.3" x2="227.3" y2="187"/>
		<line class="st2" x1="69.7" y1="239.9" x2="77" y2="227.3"/>
	</g>
</g>
<g>
	<line class="st1" x1="205.3" y1="31.2" x2="199" y2="39.8"/>
	<g>
		<line class="st1" x1="31.2" y1="58.7" x2="39.8" y2="65"/>
		<line class="st1" x1="232.8" y1="205.3" x2="224.2" y2="199"/>
		<line class="st1" x1="58.7" y1="232.8" x2="65" y2="224.2"/>
	</g>
</g>
<g>
	<line class="st1" x1="215.4" y1="39.4" x2="208.3" y2="47.3"/>
	<g>
		<line class="st1" x1="39.4" y1="48.6" x2="47.3" y2="55.7"/>
		<line class="st1" x1="224.6" y1="215.4" x2="216.7" y2="208.3"/>
		<line class="st1" x1="48.6" y1="224.6" x2="55.7" y2="216.7"/>
	</g>
</g>
<g>
	<line class="st1" x1="224.6" y1="48.6" x2="216.7" y2="55.7"/>
	<g>
		<line class="st1" x1="48.6" y1="39.4" x2="55.7" y2="47.3"/>
		<line class="st1" x1="215.4" y1="224.6" x2="208.3" y2="216.7"/>
		<line class="st1" x1="39.4" y1="215.4" x2="47.3" y2="208.3"/>
	</g>
</g>
<g>
	<line class="st1" x1="232.8" y1="58.7" x2="224.2" y2="65"/>
	<g>
		<line class="st1" x1="58.7" y1="31.2" x2="65" y2="39.8"/>
		<line class="st1" x1="205.3" y1="232.8" x2="199" y2="224.2"/>
		<line class="st1" x1="31.2" y1="205.3" x2="39.8" y2="199"/>
	</g>
</g>
<g>
	<line class="st1" x1="245.9" y1="81.3" x2="236.1" y2="85.6"/>
	<g>
		<line class="st1" x1="81.3" y1="18.1" x2="85.6" y2="27.9"/>
		<line class="st1" x1="182.7" y1="245.9" x2="178.4" y2="236.1"/>
		<line class="st1" x1="18.1" y1="182.7" x2="27.9" y2="178.4"/>
	</g>
</g>
<g>
	<line class="st1" x1="250.5" y1="93.5" x2="240.4" y2="96.7"/>
	<g>
		<line class="st1" x1="93.5" y1="13.5" x2="96.7" y2="23.6"/>
		<line class="st1" x1="170.5" y1="250.5" x2="167.3" y2="240.4"/>
		<line class="st1" x1="13.5" y1="170.5" x2="23.6" y2="167.3"/>
	</g>
</g>
<g>
	<line class="st1" x1="253.9" y1="106.1" x2="243.5" y2="108.3"/>
	<g>
		<line class="st1" x1="106.1" y1="10.1" x2="108.3" y2="20.5"/>
		<line class="st1" x1="157.9" y1="253.9" x2="155.7" y2="243.5"/>
		<line class="st1" x1="10.1" y1="157.9" x2="20.5" y2="155.7"/>
	</g>
</g>
<g>
	<line class="st1" x1="256" y1="119" x2="245.4" y2="120.1"/>
	<g>
		<line class="st1" x1="119" y1="8" x2="120.1" y2="18.6"/>
		<line class="st1" x1="145" y1="256" x2="143.9" y2="245.4"/>
		<line class="st1" x1="8" y1="145" x2="18.6" y2="143.9"/>
	</g>
</g>
<g>
	<line class="st2" x1="239.9" y1="69.7" x2="227.2" y2="77"/>
	<g>
		<line class="st2" x1="69.7" y1="24.1" x2="77" y2="36.8"/>
		<line class="st2" x1="194.3" y1="239.9" x2="187" y2="227.2"/>
		<line class="st2" x1="24.1" y1="194.3" x2="36.8" y2="187"/>
	</g>
</g>
</svg>
