<?xml version="1.0" encoding="utf-8"?>
<!-- Generator: Adobe Illustrator 22.1.0, SVG Export Plug-In . SVG Version: 6.00 Build 0)  -->
<svg version="1.1" id="Camada_1" xmlns="http://www.w3.org/2000/svg" xmlns:xlink="http://www.w3.org/1999/xlink" x="0px" y="0px"
	 viewBox="0 0 264 264" style="enable-background:new 0 0 264 264;" xml:space="preserve">
<style type="text/css">
	.st0{fill:none;stroke:#000000;stroke-width:2;stroke-linecap:round;stroke-miterlimit:10;}
	.st1{opacity:0.7;}
	.st2{fill:none;stroke:#000000;stroke-linecap:round;stroke-linejoin:round;stroke-miterlimit:10;}
	.st3{opacity:0.1;fill:none;stroke:#000000;stroke-width:0.5;stroke-miterlimit:10;}
</style>
<g>
	<g>
		<line class="st0" x1="132" y1="7.4" x2="132" y2="26"/>
	</g>
	<g>
		<line class="st0" x1="256.6" y1="132" x2="238" y2="132"/>
	</g>
	<g>
		<line class="st0" x1="132" y1="256.6" x2="132" y2="238"/>
	</g>
	<g>
		<line class="st0" x1="7.4" y1="132" x2="26" y2="132"/>
	</g>
	<g>
		<line class="st0" x1="220.1" y1="43.9" x2="206.9" y2="57.1"/>
	</g>
	<g>
		<line class="st0" x1="220.1" y1="220.1" x2="206.9" y2="206.9"/>
	</g>
	<g>
		<line class="st0" x1="43.9" y1="220.1" x2="57.1" y2="206.9"/>
	</g>
	<g>
		<line class="st0" x1="43.9" y1="43.9" x2="57.1" y2="57.1"/>
	</g>
</g>
<g class="st1">
	<line class="st2" x1="112.5" y1="8.9" x2="114.2" y2="19.4"/>
</g>
<g class="st1">
	<line class="st2" x1="255.1" y1="112.5" x2="244.6" y2="114.2"/>
</g>
<g class="st1">
	<line class="st2" x1="151.5" y1="255.1" x2="149.8" y2="244.6"/>
</g>
<g class="st1">
	<line class="st2" x1="8.9" y1="151.5" x2="19.4" y2="149.8"/>
</g>
<g class="st1">
	<line class="st2" x1="93.5" y1="13.5" x2="96.8" y2="23.6"/>
</g>
<g class="st1">
	<line class="st2" x1="250.5" y1="93.5" x2="240.4" y2="96.8"/>
</g>
<g class="st1">
	<line class="st2" x1="170.5" y1="250.5" x2="167.2" y2="240.4"/>
</g>
<g class="st1">
	<line class="st2" x1="13.5" y1="170.5" x2="23.6" y2="167.2"/>
</g>
<g class="st1">
	<line class="st2" x1="75.4" y1="21" x2="80.3" y2="30.5"/>
</g>
<g class="st1">
	<line class="st2" x1="243" y1="75.4" x2="233.5" y2="80.3"/>
</g>
<g class="st1">
	<line class="st2" x1="188.6" y1="243" x2="183.7" y2="233.5"/>
</g>
<g class="st1">
	<line class="st2" x1="21" y1="188.6" x2="30.5" y2="183.7"/>
</g>
<g class="st1">
	<line class="st2" x1="58.8" y1="31.2" x2="65" y2="39.8"/>
</g>
<g class="st1">
	<line class="st2" x1="232.8" y1="58.8" x2="224.2" y2="65"/>
</g>
<g class="st1">
	<line class="st2" x1="205.2" y1="232.8" x2="199" y2="224.2"/>
</g>
<g class="st1">
	<line class="st2" x1="31.2" y1="205.2" x2="39.8" y2="199"/>
</g>
<g class="st1">
	<line class="st2" x1="31.2" y1="58.8" x2="39.8" y2="65"/>
</g>
<g class="st1">
	<line class="st2" x1="205.2" y1="31.2" x2="199" y2="39.8"/>
</g>
<g class="st1">
	<line class="st2" x1="232.8" y1="205.2" x2="224.2" y2="199"/>
</g>
<g class="st1">
	<line class="st2" x1="58.8" y1="232.8" x2="65" y2="224.2"/>
</g>
<g class="st1">
	<line class="st2" x1="21" y1="75.4" x2="30.5" y2="80.3"/>
</g>
<g class="st1">
	<line class="st2" x1="188.6" y1="21" x2="183.7" y2="30.5"/>
</g>
<g class="st1">
	<line class="st2" x1="243" y1="188.6" x2="233.5" y2="183.7"/>
</g>
<g class="st1">
	<line class="st2" x1="75.4" y1="243" x2="80.3" y2="233.5"/>
</g>
<g class="st1">
	<line class="st2" x1="13.5" y1="93.5" x2="23.6" y2="96.8"/>
</g>
<g class="st1">
	<line class="st2" x1="170.5" y1="13.5" x2="167.2" y2="23.6"/>
</g>
<g class="st1">
	<line class="st2" x1="250.5" y1="170.5" x2="240.4" y2="167.2"/>
</g>
<g class="st1">
	<line class="st2" x1="93.5" y1="250.5" x2="96.8" y2="240.4"/>
</g>
<g class="st1">
	<line class="st2" x1="8.9" y1="112.5" x2="19.4" y2="114.2"/>
</g>
<g class="st1">
	<line class="st2" x1="151.5" y1="8.9" x2="149.8" y2="19.4"/>
</g>
<g class="st1">
	<line class="st2" x1="255.1" y1="151.5" x2="244.6" y2="149.8"/>
</g>
<g class="st1">
	<line class="st2" x1="112.5" y1="255.1" x2="114.2" y2="244.6"/>
</g>
<circle class="st3" cx="132" cy="132" r="128.7"/>
</svg>
